<?xml version="1.0" encoding="UTF-8"?>
<svg version="1.1" xmlns="http://www.w3.org/2000/svg" width="350" height="350">
<path d="M0 0 C0.94343262 0.35143066 1.88686523 0.70286133 2.85888672 1.06494141 C22.77644432 8.56869841 22.77644432 8.56869841 28 16 C29.24309133 19.07351481 29.22578649 20.556756 29 24 C27.75 26.9375 27.75 26.9375 26 29 C21.73379015 30.42206995 17.65752085 30.19062698 13.1875 30.1875 C11.77259277 30.1884668 11.77259277 30.1884668 10.32910156 30.18945312 C3.72261495 30.13989884 -2.50766772 29.54941669 -9.0234375 28.4453125 C-13.06809875 27.8402057 -16.91898687 27.85927541 -21 28 C1.3622231 40.70580858 27.42463053 41.5930071 51.92456055 35.01611328 C64.05454074 31.57484415 76.42131058 28.00271692 87.1875 21.3125 C95.6349168 16.15018973 104.81413031 14.02440017 114.67578125 15.36328125 C118.31351427 16.35983668 119.97733089 17.86137552 122 21 C122.73090238 24.81693467 122.32371665 26.45334642 120.34375 29.796875 C117.78352063 33.29585514 115.02250124 36.28090091 111.9375 39.3125 C111.06943726 40.16932373 111.06943726 40.16932373 110.18383789 41.04345703 C105.05349461 46.04767321 99.68775319 50.63976107 94 55 C93.28956543 55.54914063 92.57913086 56.09828125 91.84716797 56.6640625 C52.17605601 87.23659396 20.51558826 101.61227259 -30.25 95.3125 C-48.28457498 92.91655406 -66.03532212 89.27992111 -83.671875 84.8359375 C-102.48656318 80.12016031 -119.61680054 76.51660207 -138.98046875 80.66015625 C-139.98013672 80.82837891 -139.98013672 80.82837891 -141 81 C-142.88779211 79.11220789 -142.15750594 75.83553458 -142.17700195 73.32470703 C-142.18357315 72.6271228 -142.19014435 71.92953857 -142.19691467 71.21081543 C-142.21668984 68.89314682 -142.22831913 66.5755431 -142.23828125 64.2578125 C-142.24235678 63.46812954 -142.2464323 62.67844658 -142.25063133 61.86483383 C-142.27150945 57.68577076 -142.28580394 53.50674071 -142.29516602 49.32763672 C-142.30623815 45.00402096 -142.34064177 40.68091881 -142.38033772 36.35748482 C-142.40644332 33.03924583 -142.41485238 29.72113036 -142.41844749 26.4027977 C-142.42332871 24.80874027 -142.43498617 23.21468891 -142.45348549 21.62073135 C-142.47775135 19.39143064 -142.47693595 17.16347348 -142.4699707 14.93408203 C-142.47583694 13.66468781 -142.48170319 12.39529358 -142.48774719 11.08743286 C-142 8 -142 8 -140.11346436 6.12487793 C-137.81880592 4.90356061 -135.63652306 4.04366327 -133.15234375 3.2734375 C-132.17096436 2.96801025 -131.18958496 2.66258301 -130.1784668 2.34790039 C-129.10894775 2.02684326 -128.03942871 1.70578613 -126.9375 1.375 C-125.82093018 1.03525146 -124.70436035 0.69550293 -123.55395508 0.34545898 C-78.95055762 -12.98203255 -44.45881299 -16.81595452 0 0 Z " fill="#010101" transform="translate(185,204)"/>
<path d="M0 0 C1.03125 0.7425 2.0625 1.485 3.125 2.25 C9.16256999 8.02506694 13.79253925 15.29318459 17 23 C17.2990625 23.69996094 17.598125 24.39992187 17.90625 25.12109375 C22.46787319 37.64443888 20.97122073 52.78473139 15.78125 64.828125 C8.73970966 78.83296634 -2.3487742 87.89973878 -16.9375 93.4375 C-20.62494055 94.64188706 -24.12008193 95.67667349 -28 96 C-28.73992187 96.06316406 -29.47984375 96.12632812 -30.2421875 96.19140625 C-45.15107807 96.87712674 -59.49433794 91.71347616 -70.8125 82.125 C-81.37956821 72.14185178 -86.52004978 60.4548563 -88 46 C-88.08378906 45.27683594 -88.16757813 44.55367187 -88.25390625 43.80859375 C-89.09666064 29.48176915 -82.75551765 16.4642728 -73.8125 5.8125 C-65.19339342 -3.36778381 -52.03922053 -11.13861623 -39.19921875 -12 C-24.49731645 -12 -11.80201171 -9.10860655 0 0 Z " fill="#020202" transform="translate(203,60)"/>
<path d="M0 0 C4.15202397 0.42307353 7.27463755 3.03311044 10.625 5.3125 C26.06847901 15.51644237 42.81251239 18.30827063 61.13671875 15.6953125 C64.95014812 14.89847651 68.4483295 13.57635787 72 12 C73.04414063 11.54109375 74.08828125 11.0821875 75.1640625 10.609375 C81.31301137 7.71036685 86.76849275 4.33907366 92 0 C108.98151418 9.03334433 116.08330126 36.08636015 122 53 C122.25330078 53.72123047 122.50660156 54.44246094 122.76757812 55.18554688 C125.05531959 61.80292442 127.43185641 68.9031596 127 76 C123.66844665 79.33155335 119.05856641 79.64030736 114.5625 80.6875 C113.59505859 80.92533203 112.62761719 81.16316406 111.63085938 81.40820312 C110.23770508 81.73788086 110.23770508 81.73788086 108.81640625 82.07421875 C107.96506104 82.27619873 107.11371582 82.47817871 106.23657227 82.6862793 C104 83 104 83 101 82 C100.90203125 81.05898437 100.8040625 80.11796875 100.703125 79.1484375 C99.65616423 70.42978146 98.59124119 64.8280973 91.6875 59.0625 C68.97913137 43.14195895 34.89514566 32.79074538 7.21875 32.90234375 C6.51979614 32.9037587 5.82084229 32.90517365 5.10070801 32.90663147 C2.90042571 32.9121633 0.70025077 32.92470223 -1.5 32.9375 C-3.00520685 32.94252384 -4.51041532 32.94708518 -6.015625 32.95117188 C-9.67711735 32.96211023 -13.33854817 32.97932641 -17 33 C-18.16012586 29.51962242 -17.88303969 29.08768247 -16.41015625 25.90234375 C-15.85714844 24.70617432 -15.85714844 24.70617432 -15.29296875 23.48583984 C-14.88691406 22.6448877 -14.48085937 21.80393555 -14.0625 20.9375 C-13.65515625 20.08365723 -13.2478125 19.22981445 -12.828125 18.35009766 C-9.41147598 11.40440984 -5.50190344 5.50190344 0 0 Z " fill="#050505" transform="translate(122,150)"/>
<path d="M0 0 C-1.60875 0.61875 -1.60875 0.61875 -3.25 1.25 C-6.55617557 2.6431264 -8.50359139 4.41443394 -11 7 C-11.99 7 -12.98 7 -14 7 C-15.67099977 7.31088368 -17.33871537 7.64080332 -19 8 C-14.23366504 3.71029854 -6.64915785 -2.50303171 0 0 Z " fill="#232323" transform="translate(285,222)"/>
<path d="M0 0 C0.33 0 0.66 0 1 0 C2.0773541 7.49175465 1.8388516 14.48905184 1 22 C0.67 22 0.34 22 0 22 C-1.26612568 14.56151161 -1.52494731 7.43411812 0 0 Z " fill="#2A2A2A" transform="translate(116,91)"/>
<path d="M0 0 C0 0.33 0 0.66 0 1 C-5.50016964 2.30267176 -10.47032059 1.71033431 -16 1 C-16 0.67 -16 0.34 -16 0 C-10.49983036 -1.30267176 -5.52967941 -0.71033431 0 0 Z " fill="#2D2D2D" transform="translate(301,220)"/>
<path d="M0 0 C1.32 0.66 2.64 1.32 4 2 C3.67 3.32 3.34 4.64 3 6 C1.68 6.33 0.36 6.66 -1 7 C-2 4 -2 4 -1.0625 1.8125 C-0.5365625 0.9153125 -0.5365625 0.9153125 0 0 Z " fill="#0B0B0B" transform="translate(198,57)"/>
</svg>
